<svg id="svg" version="1.1" xmlns="http://www.w3.org/2000/svg" xmlns:xlink="http://www.w3.org/1999/xlink" width="400" height="400" viewBox="0, 0, 400,400"><g id="svgg"><path id="path0" d="M112.695 76.961 C 90.845 78.402,74.579 92.211,69.046 114.018 L 68.193 117.383 68.063 197.461 C 67.970 254.782,68.057 278.637,68.370 281.403 C 70.689 301.887,86.701 318.646,107.619 322.482 C 114.173 323.684,269.181 324.490,285.156 323.405 C 310.131 321.709,327.914 305.946,331.470 282.352 C 332.433 275.961,332.089 118.542,331.103 114.453 C 326.321 94.621,312.482 81.326,292.578 77.441 C 289.022 76.747,122.675 76.303,112.695 76.961 M291.406 91.911 C 304.020 95.288,313.014 104.228,316.245 116.602 C 317.167 120.134,317.407 275.263,316.497 280.256 C 313.899 294.522,305.767 303.877,292.287 308.107 L 288.867 309.180 202.344 309.293 C 146.244 309.366,114.774 309.269,112.846 309.015 C 98.536 307.136,87.335 297.078,83.976 283.089 C 83.221 279.944,83.208 278.343,83.316 199.023 L 83.427 118.164 84.273 115.506 C 88.357 102.670,98.122 93.956,111.071 91.590 C 115.964 90.696,288.013 91.002,291.406 91.911 M116.504 134.666 L 113.281 134.797 113.281 143.766 L 113.281 152.734 142.773 152.734 C 158.994 152.734,172.266 152.805,172.266 152.892 C 172.266 153.072,172.360 152.901,149.895 193.359 C 133.008 223.772,124.344 239.427,121.682 244.336 C 120.866 245.840,120.069 247.246,119.910 247.461 C 119.751 247.676,118.706 249.507,117.587 251.530 L 115.554 255.208 115.687 261.881 L 115.820 268.555 156.386 268.654 L 196.952 268.754 196.816 259.963 L 196.680 251.172 167.480 251.172 C 151.421 251.172,138.281 251.095,138.281 251.001 C 138.281 250.907,139.660 248.402,141.346 245.434 C 143.032 242.467,147.450 234.590,151.165 227.930 C 159.990 212.108,179.173 177.952,187.693 162.891 C 191.400 156.338,194.650 150.556,194.916 150.043 C 195.280 149.339,195.329 147.297,195.115 141.742 L 194.832 134.375 157.279 134.455 C 136.625 134.498,118.276 134.593,116.504 134.666 M214.274 187.598 C 214.283 216.655,214.327 246.714,214.372 254.395 L 214.453 268.359 223.501 268.359 L 232.550 268.359 232.292 247.302 C 232.150 235.720,232.148 223.871,232.287 220.971 L 232.540 215.697 246.836 215.533 C 264.629 215.328,269.057 214.263,276.533 208.390 C 297.119 192.217,294.417 149.723,272.126 139.090 C 263.623 135.034,261.327 134.766,235.106 134.766 L 214.258 134.766 214.274 187.598 M258.008 153.123 C 267.698 155.032,272.255 162.391,272.263 176.145 C 272.270 189.162,266.932 196.510,256.081 198.420 C 254.806 198.645,248.917 198.828,242.995 198.827 L 232.227 198.826 232.092 175.523 L 231.958 152.220 244.006 152.479 C 250.633 152.621,256.934 152.911,258.008 153.123 " stroke="none" fill="#8b31f4" fill-rule="evenodd"></path><path id="path1" d="M110.938 76.172 C 110.615 76.380,109.165 76.553,107.715 76.557 C 106.265 76.560,105.078 76.714,105.078 76.899 C 105.078 77.085,104.151 77.345,103.017 77.478 C 101.884 77.612,100.258 78.055,99.404 78.463 C 98.550 78.871,97.280 79.328,96.582 79.477 C 95.884 79.627,95.313 79.911,95.313 80.109 C 95.313 80.307,94.961 80.469,94.531 80.469 C 94.102 80.469,93.749 80.601,93.749 80.762 C 93.748 80.923,92.957 81.380,91.991 81.777 C 91.025 82.174,90.234 82.658,90.234 82.851 C 90.234 83.045,90.051 83.203,89.827 83.203 C 89.358 83.203,85.026 86.315,84.831 86.792 C 84.759 86.967,84.494 87.109,84.241 87.109 C 83.705 87.109,81.017 89.651,79.195 91.881 C 78.499 92.733,77.533 93.897,77.048 94.469 C 76.564 95.040,76.068 95.815,75.948 96.191 C 75.827 96.567,75.565 96.875,75.364 96.875 C 75.164 96.875,75.000 97.139,75.000 97.461 C 75.000 97.783,74.824 98.047,74.609 98.047 C 74.395 98.047,74.219 98.398,74.219 98.828 C 74.219 99.258,74.087 99.609,73.926 99.610 C 73.765 99.610,73.105 100.750,72.461 102.144 C 71.816 103.537,71.157 104.680,70.996 104.682 C 70.835 104.685,70.703 104.954,70.703 105.279 C 70.703 105.604,70.527 106.219,70.313 106.646 C 70.098 107.073,69.748 107.767,69.536 108.190 C 69.324 108.612,69.036 109.931,68.897 111.120 C 68.757 112.308,68.491 113.281,68.306 113.281 C 68.120 113.281,67.969 113.974,67.969 114.821 C 67.969 115.667,67.793 116.469,67.578 116.602 C 67.037 116.936,67.037 283.845,67.578 284.180 C 67.793 284.312,67.969 285.016,67.969 285.742 C 67.969 286.469,68.121 287.158,68.308 287.273 C 68.494 287.388,68.766 288.381,68.912 289.478 C 69.057 290.576,69.330 291.767,69.518 292.124 C 69.706 292.481,70.575 294.268,71.449 296.094 C 73.196 299.741,74.156 301.455,74.905 302.265 C 75.175 302.557,75.599 303.177,75.847 303.644 C 76.866 305.559,78.981 307.922,83.203 311.866 C 84.678 313.243,90.831 317.578,91.311 317.578 C 91.542 317.578,91.790 317.710,91.862 317.871 C 92.092 318.388,97.087 320.703,97.973 320.703 C 98.443 320.703,98.828 320.840,98.828 321.007 C 98.828 321.436,103.106 322.656,104.609 322.656 C 105.297 322.656,105.859 322.832,105.859 323.047 C 105.859 323.262,106.439 323.438,107.148 323.438 C 107.857 323.438,108.609 323.609,108.819 323.819 C 109.387 324.387,289.393 324.435,289.961 323.867 C 290.197 323.631,291.224 323.438,292.243 323.438 C 293.261 323.437,294.188 323.287,294.301 323.103 C 294.415 322.919,295.521 322.663,296.760 322.536 C 297.998 322.408,299.072 322.119,299.147 321.894 C 299.222 321.669,299.621 321.484,300.033 321.484 C 300.444 321.484,300.781 321.309,300.781 321.094 C 300.781 320.879,301.181 320.703,301.670 320.703 C 302.159 320.703,303.609 320.181,304.893 319.544 C 306.176 318.906,307.425 318.378,307.667 318.372 C 307.909 318.365,308.341 318.077,308.628 317.733 C 308.914 317.388,309.506 316.949,309.945 316.757 C 310.872 316.351,312.085 315.597,312.708 315.039 C 312.948 314.824,313.746 314.209,314.482 313.672 C 317.269 311.638,324.609 303.737,324.609 302.770 C 324.609 302.536,324.756 302.344,324.936 302.344 C 325.116 302.344,325.769 301.333,326.389 300.098 C 327.008 298.862,327.652 297.793,327.820 297.721 C 327.988 297.650,328.125 297.347,328.125 297.050 C 328.125 296.752,328.466 295.901,328.883 295.159 C 329.300 294.416,329.759 293.179,329.904 292.408 C 330.048 291.637,330.323 290.911,330.513 290.793 C 330.704 290.675,330.859 290.206,330.859 289.751 C 330.859 288.871,331.509 286.583,332.079 285.455 C 332.405 284.810,332.589 277.035,332.270 277.376 C 332.186 277.466,332.019 278.594,331.898 279.883 C 329.784 302.411,313.959 318.987,290.625 323.115 C 286.361 323.869,115.491 323.880,110.547 323.127 C 86.675 319.488,70.293 302.768,67.985 279.688 C 67.658 276.416,67.571 253.959,67.667 197.070 L 67.798 118.945 68.676 115.122 C 73.492 94.143,88.184 80.217,108.718 77.168 C 113.429 76.468,284.366 76.255,289.648 76.942 C 295.999 77.768,299.710 78.797,304.637 81.095 C 320.602 88.544,330.433 102.804,332.029 120.829 C 332.265 123.496,332.434 154.229,332.465 199.805 C 332.492 240.840,332.648 273.887,332.811 273.242 C 333.646 269.951,332.860 115.541,332.005 114.668 C 331.804 114.464,331.641 113.727,331.641 113.031 C 331.641 112.335,331.465 111.656,331.250 111.523 C 331.035 111.391,330.859 110.677,330.859 109.938 C 330.859 109.199,330.706 108.594,330.518 108.594 C 330.330 108.594,330.174 108.198,330.172 107.715 C 330.168 106.674,328.853 103.516,328.423 103.516 C 328.259 103.516,328.125 103.164,328.125 102.734 C 328.125 102.305,327.949 101.953,327.734 101.953 C 327.520 101.953,327.344 101.612,327.344 101.195 C 327.344 100.778,327.173 100.331,326.964 100.202 C 326.754 100.073,326.306 99.383,325.968 98.669 C 325.629 97.955,325.009 97.003,324.590 96.553 C 324.171 96.104,323.828 95.629,323.828 95.498 C 323.828 95.035,321.657 92.405,320.036 90.905 C 319.133 90.069,317.387 88.433,316.157 87.271 C 314.928 86.108,313.766 85.156,313.575 85.156 C 313.385 85.156,312.653 84.717,311.949 84.180 C 311.245 83.643,310.546 83.203,310.396 83.203 C 310.246 83.203,309.739 82.845,309.269 82.407 C 308.799 81.969,307.971 81.502,307.430 81.370 C 306.888 81.238,306.357 81.016,306.250 80.877 C 305.921 80.450,303.240 79.297,302.578 79.297 C 302.234 79.297,301.953 79.121,301.953 78.906 C 301.953 78.691,301.436 78.516,300.804 78.516 C 300.172 78.516,299.557 78.356,299.437 78.162 C 299.316 77.967,298.339 77.687,297.265 77.539 C 296.191 77.391,295.313 77.111,295.313 76.916 C 295.313 76.722,294.180 76.563,292.796 76.563 C 291.413 76.563,290.172 76.387,290.039 76.172 C 289.712 75.642,111.757 75.642,110.938 76.172 M192.773 91.404 L 110.352 91.603 107.492 92.490 C 95.898 96.088,87.024 105.249,84.137 116.602 C 83.101 120.675,82.796 276.362,83.814 281.407 C 86.594 295.182,95.431 304.594,108.820 308.040 L 112.695 309.037 200.142 308.992 C 254.442 308.964,288.349 308.805,289.595 308.571 C 302.227 306.199,311.667 297.330,315.554 284.180 L 316.593 280.664 316.706 200.586 C 316.830 112.278,316.966 117.561,314.427 111.594 C 308.733 98.215,296.248 90.789,279.985 91.110 C 277.351 91.162,238.105 91.294,192.773 91.404 M195.313 142.037 L 195.313 149.699 188.230 162.252 C 168.906 196.503,158.208 215.572,143.934 241.211 C 143.336 242.285,141.908 244.796,140.760 246.791 C 139.611 248.786,138.672 250.500,138.672 250.600 C 138.672 250.700,151.768 250.781,167.773 250.781 L 196.875 250.781 196.875 259.766 L 196.875 268.750 156.226 268.750 L 115.578 268.750 115.699 261.426 L 115.820 254.102 117.242 251.758 C 118.024 250.469,122.353 242.734,126.862 234.570 C 131.371 226.406,138.445 213.662,142.582 206.250 C 148.462 195.713,164.309 167.098,171.333 154.332 L 172.281 152.609 142.781 152.843 L 113.281 153.078 113.281 143.726 L 113.281 134.375 154.297 134.375 L 195.313 134.375 195.313 142.037 M262.329 135.471 C 287.141 140.882,298.643 170.815,285.850 196.680 C 278.217 212.112,268.149 216.327,239.884 215.926 L 232.422 215.820 232.422 242.090 L 232.422 268.359 223.500 268.359 L 214.579 268.359 214.318 252.441 C 214.123 240.486,213.976 175.030,214.058 136.388 L 214.063 134.300 236.426 134.500 C 256.789 134.681,259.106 134.768,262.329 135.471 M232.330 175.562 L 232.227 198.457 244.336 198.426 C 256.115 198.397,256.523 198.370,259.288 197.438 C 268.511 194.331,272.048 188.110,272.044 175.000 C 272.040 163.833,269.371 158.306,262.325 154.875 C 258.493 153.009,258.657 153.028,244.830 152.838 L 232.434 152.668 232.330 175.562 " stroke="none" fill="#fbfbfb" fill-rule="evenodd"></path><path id="path2" d="M117.285 91.300 C 118.091 91.384,119.409 91.384,120.215 91.300 C 121.021 91.216,120.361 91.147,118.750 91.147 C 117.139 91.147,116.479 91.216,117.285 91.300 M124.902 91.298 C 125.601 91.385,126.743 91.385,127.441 91.298 C 128.140 91.212,127.568 91.141,126.172 91.141 C 124.775 91.141,124.204 91.212,124.902 91.298 M259.450 91.307 C 262.176 91.374,266.746 91.375,269.606 91.308 C 272.465 91.241,270.234 91.186,264.648 91.186 C 259.063 91.186,256.723 91.240,259.450 91.307 M67.770 200.391 C 67.770 242.607,67.815 259.878,67.871 238.770 C 67.927 217.661,67.927 183.120,67.871 162.012 C 67.815 140.903,67.770 158.174,67.770 200.391 M332.223 199.023 C 332.223 240.488,332.268 257.393,332.324 236.590 C 332.380 215.787,332.380 181.861,332.324 161.199 C 332.268 140.538,332.223 157.559,332.223 199.023 M214.243 166.211 C 214.243 176.523,214.294 180.686,214.355 175.461 C 214.417 170.236,214.417 161.799,214.355 156.711 C 214.293 151.624,214.243 155.898,214.243 166.211 M236.054 152.635 C 237.945 152.707,240.933 152.706,242.695 152.634 C 244.457 152.562,242.910 152.503,239.258 152.504 C 235.605 152.504,234.164 152.563,236.054 152.635 M119.043 153.025 C 121.030 153.096,124.282 153.096,126.270 153.025 C 128.257 152.955,126.631 152.897,122.656 152.897 C 118.682 152.897,117.056 152.955,119.043 153.025 M232.203 163.867 C 232.203 169.883,232.257 172.289,232.323 169.215 C 232.390 166.140,232.389 161.218,232.323 158.277 C 232.257 155.336,232.203 157.852,232.203 163.867 M214.216 190.234 C 214.216 193.135,214.277 194.321,214.352 192.871 C 214.427 191.421,214.427 189.048,214.352 187.598 C 214.277 186.147,214.216 187.334,214.216 190.234 M237.598 198.730 C 240.552 198.796,245.386 198.796,248.340 198.730 C 251.294 198.663,248.877 198.609,242.969 198.609 C 237.061 198.609,234.644 198.663,237.598 198.730 M214.180 245.703 C 214.180 246.885,214.253 247.368,214.342 246.777 C 214.432 246.187,214.432 245.220,214.342 244.629 C 214.253 244.038,214.180 244.521,214.180 245.703 M157.715 251.074 C 163.784 251.135,173.716 251.135,179.785 251.074 C 185.854 251.013,180.889 250.964,168.750 250.964 C 156.611 250.964,151.646 251.013,157.715 251.074 M227.802 309.277 C 238.260 309.335,255.486 309.335,266.084 309.277 C 276.681 309.219,268.125 309.172,247.070 309.172 C 226.016 309.172,217.345 309.219,227.802 309.277 M132.324 323.713 C 132.808 323.806,133.599 323.806,134.082 323.713 C 134.565 323.620,134.170 323.544,133.203 323.544 C 132.236 323.544,131.841 323.620,132.324 323.713 " stroke="none" fill="#c69af7" fill-rule="evenodd"></path><path id="path3" d="M112.598 76.842 C 113.188 76.932,114.155 76.932,114.746 76.842 C 115.337 76.753,114.854 76.680,113.672 76.680 C 112.490 76.680,112.007 76.753,112.598 76.842 M285.259 76.843 C 285.853 76.933,286.732 76.930,287.212 76.837 C 287.693 76.745,287.207 76.671,286.133 76.674 C 285.059 76.677,284.666 76.753,285.259 76.843 M81.250 90.820 C 80.301 91.787,79.613 92.578,79.720 92.578 C 79.828 92.578,80.692 91.787,81.641 90.820 C 82.589 89.854,83.278 89.063,83.170 89.063 C 83.063 89.063,82.199 89.854,81.250 90.820 M159.113 91.309 C 176.049 91.365,203.646 91.365,220.441 91.309 C 237.236 91.252,223.379 91.206,189.648 91.206 C 155.918 91.206,142.177 91.252,159.113 91.309 M233.326 134.667 C 236.938 134.732,242.739 134.732,246.216 134.667 C 249.694 134.602,246.738 134.550,239.648 134.550 C 232.559 134.550,229.713 134.603,233.326 134.667 M83.310 138.672 C 83.310 139.639,83.386 140.034,83.479 139.551 C 83.572 139.067,83.572 138.276,83.479 137.793 C 83.386 137.310,83.310 137.705,83.310 138.672 M290.753 174.023 C 290.755 175.527,290.826 176.095,290.910 175.284 C 290.995 174.474,290.993 173.243,290.907 172.550 C 290.821 171.856,290.751 172.520,290.753 174.023 M237.616 215.916 C 239.290 215.989,241.927 215.989,243.475 215.915 C 245.023 215.841,243.652 215.781,240.430 215.781 C 237.207 215.782,235.941 215.842,237.616 215.916 M247.559 215.908 C 248.257 215.994,249.399 215.994,250.098 215.908 C 250.796 215.821,250.225 215.750,248.828 215.750 C 247.432 215.750,246.860 215.821,247.559 215.908 M232.198 231.641 C 232.198 236.475,232.254 238.452,232.323 236.035 C 232.391 233.618,232.391 229.663,232.323 227.246 C 232.254 224.829,232.198 226.807,232.198 231.641 M139.753 251.064 C 140.455 251.151,141.510 251.149,142.097 251.060 C 142.684 250.971,142.109 250.900,140.820 250.902 C 139.531 250.904,139.051 250.977,139.753 251.064 M144.434 251.057 C 144.917 251.150,145.708 251.150,146.191 251.057 C 146.675 250.964,146.279 250.888,145.313 250.888 C 144.346 250.888,143.950 250.964,144.434 251.057 M332.122 276.172 C 332.122 276.924,332.202 277.231,332.301 276.855 C 332.399 276.479,332.399 275.864,332.301 275.488 C 332.202 275.112,332.122 275.420,332.122 276.172 M125.884 309.265 C 126.478 309.354,127.357 309.352,127.837 309.259 C 128.318 309.167,127.832 309.093,126.758 309.096 C 125.684 309.099,125.291 309.175,125.884 309.265 M119.238 323.722 C 120.044 323.806,121.362 323.806,122.168 323.722 C 122.974 323.638,122.314 323.569,120.703 323.569 C 119.092 323.569,118.433 323.638,119.238 323.722 " stroke="none" fill="#e1c6fb" fill-rule="evenodd"></path><path id="path4" d="M114.160 91.285 C 114.536 91.383,115.151 91.383,115.527 91.285 C 115.903 91.187,115.596 91.106,114.844 91.106 C 114.092 91.106,113.784 91.187,114.160 91.285 M121.973 91.285 C 122.349 91.383,122.964 91.383,123.340 91.285 C 123.716 91.187,123.408 91.106,122.656 91.106 C 121.904 91.106,121.597 91.187,121.973 91.285 M316.895 127.930 C 316.900 128.789,316.980 129.095,317.073 128.609 C 317.167 128.123,317.163 127.420,317.065 127.046 C 316.967 126.673,316.891 127.070,316.895 127.930 M114.746 134.661 C 115.659 134.743,117.153 134.743,118.066 134.661 C 118.979 134.579,118.232 134.511,116.406 134.511 C 114.580 134.511,113.833 134.579,114.746 134.661 M195.065 138.086 C 195.066 140.234,195.131 141.063,195.210 139.928 C 195.289 138.793,195.289 137.035,195.208 136.022 C 195.128 135.009,195.064 135.938,195.065 138.086 M216.699 134.665 C 218.257 134.739,220.806 134.739,222.363 134.665 C 223.921 134.591,222.646 134.530,219.531 134.530 C 216.416 134.530,215.142 134.591,216.699 134.665 M316.895 135.742 C 316.900 136.602,316.980 136.907,317.073 136.421 C 317.167 135.935,317.163 135.232,317.065 134.859 C 316.967 134.485,316.891 134.883,316.895 135.742 M316.903 139.063 C 316.903 140.029,316.979 140.425,317.073 139.941 C 317.166 139.458,317.166 138.667,317.073 138.184 C 316.979 137.700,316.903 138.096,316.903 139.063 M247.168 152.619 C 247.651 152.713,248.442 152.713,248.926 152.619 C 249.409 152.526,249.014 152.450,248.047 152.450 C 247.080 152.450,246.685 152.526,247.168 152.619 M316.909 158.008 C 316.912 159.082,316.987 159.475,317.077 158.881 C 317.167 158.288,317.165 157.409,317.072 156.928 C 316.979 156.448,316.906 156.934,316.909 158.008 M316.895 176.367 C 316.900 177.227,316.980 177.532,317.073 177.046 C 317.167 176.560,317.163 175.857,317.065 175.484 C 316.967 175.110,316.891 175.508,316.895 176.367 M316.941 185.156 C 316.941 187.412,317.006 188.335,317.085 187.207 C 317.164 186.079,317.164 184.233,317.085 183.105 C 317.006 181.978,316.941 182.900,316.941 185.156 M316.895 191.992 C 316.900 192.852,316.980 193.157,317.073 192.671 C 317.167 192.185,317.163 191.482,317.065 191.109 C 316.967 190.735,316.891 191.133,316.895 191.992 M316.909 195.508 C 316.912 196.582,316.987 196.975,317.077 196.381 C 317.167 195.788,317.165 194.909,317.072 194.428 C 316.979 193.948,316.906 194.434,316.909 195.508 M316.903 223.047 C 316.903 224.014,316.979 224.409,317.073 223.926 C 317.166 223.442,317.166 222.651,317.073 222.168 C 316.979 221.685,316.903 222.080,316.903 223.047 M316.931 227.930 C 316.932 229.648,317.001 230.303,317.083 229.384 C 317.166 228.465,317.165 227.059,317.081 226.259 C 316.997 225.459,316.929 226.211,316.931 227.930 M214.169 232.813 C 214.169 233.779,214.245 234.175,214.338 233.691 C 214.431 233.208,214.431 232.417,214.338 231.934 C 214.245 231.450,214.169 231.846,214.169 232.813 M316.909 238.477 C 316.912 239.551,316.987 239.944,317.077 239.350 C 317.167 238.756,317.165 237.877,317.072 237.397 C 316.979 236.917,316.906 237.402,316.909 238.477 M192.100 251.068 C 193.019 251.150,194.425 251.149,195.225 251.065 C 196.025 250.981,195.273 250.914,193.555 250.915 C 191.836 250.917,191.181 250.985,192.100 251.068 M145.215 309.277 C 154.507 309.336,169.712 309.336,179.004 309.277 C 188.296 309.219,180.693 309.171,162.109 309.171 C 143.525 309.171,135.923 309.219,145.215 309.277 M198.350 309.271 C 199.269 309.353,200.675 309.352,201.475 309.268 C 202.275 309.184,201.523 309.117,199.805 309.118 C 198.086 309.120,197.431 309.188,198.350 309.271 M206.938 309.261 C 207.424 309.354,208.127 309.351,208.501 309.253 C 208.874 309.155,208.477 309.079,207.617 309.083 C 206.758 309.087,206.452 309.167,206.938 309.261 " stroke="none" fill="#b47efa" fill-rule="evenodd"></path></g></svg>